<svg width="101" height="101" viewBox="0 0 101 101" fill="none" xmlns="http://www.w3.org/2000/svg">
<g filter="url(#filter0_d_33_1506)">
<circle cx="45.5282" cy="46.4535" r="35.4384" fill="white"/>
</g>
<g clip-path="url(#clip0_33_1506)">
<path d="M59.8579 43.7585L47.2133 43.7579C46.6549 43.7579 46.2023 44.2105 46.2023 44.7688V48.8082C46.2023 49.3665 46.6549 49.8191 47.2132 49.8191H54.3339C53.5542 51.8426 52.0989 53.5373 50.2421 54.614L53.2784 59.8701C58.1489 57.0532 61.0284 52.1109 61.0284 46.5782C61.0284 45.7904 60.9703 45.2273 60.8542 44.5932C60.7659 44.1114 60.3477 43.7585 59.8579 43.7585Z" fill="#167EE6"/>
<path d="M45.528 55.8881C42.0433 55.8881 39.0012 53.9841 37.3673 51.1667L32.1115 54.1961C34.7862 58.8317 39.7967 61.9533 45.528 61.9533C48.3396 61.9533 50.9926 61.1963 53.278 59.877V59.8698L50.2418 54.6137C48.853 55.4193 47.2458 55.8881 45.528 55.8881Z" fill="#12B347"/>
<path d="M53.2782 59.8772V59.87L50.242 54.614C48.8531 55.4194 47.2461 55.8883 45.5282 55.8883V61.9535C48.3398 61.9535 50.9929 61.1965 53.2782 59.8772Z" fill="#0F993E"/>
<path d="M36.0934 46.4533C36.0934 44.7356 36.5622 43.1287 37.3675 41.7399L32.1117 38.7105C30.7852 40.9887 30.0282 43.6345 30.0282 46.4533C30.0282 49.2721 30.7852 51.9179 32.1117 54.1961L37.3675 51.1667C36.5622 49.7779 36.0934 48.171 36.0934 46.4533Z" fill="#FFD500"/>
<path d="M45.528 37.0187C47.8004 37.0187 49.8877 37.8262 51.5181 39.1693C51.9203 39.5006 52.5049 39.4767 52.8733 39.1082L55.7353 36.2462C56.1533 35.8282 56.1236 35.1439 55.677 34.7566C52.9454 32.3868 49.3913 30.9535 45.528 30.9535C39.7967 30.9535 34.7862 34.0751 32.1115 38.7107L37.3673 41.7401C39.0012 38.9227 42.0433 37.0187 45.528 37.0187Z" fill="#FF4B26"/>
<path d="M51.5182 39.1693C51.9204 39.5006 52.5051 39.4767 52.8735 39.1082L55.7355 36.2462C56.1535 35.8282 56.1237 35.1439 55.6772 34.7566C52.9456 32.3868 49.3915 30.9535 45.5282 30.9535V37.0187C47.8005 37.0187 49.8879 37.8262 51.5182 39.1693Z" fill="#D93F21"/>
</g>
<defs>
<filter id="filter0_d_33_1506" x="0.0898438" y="0.0151367" width="100.877" height="100.877" filterUnits="userSpaceOnUse" color-interpolation-filters="sRGB">
<feFlood flood-opacity="0" result="BackgroundImageFix"/>
<feColorMatrix in="SourceAlpha" type="matrix" values="0 0 0 0 0 0 0 0 0 0 0 0 0 0 0 0 0 0 127 0" result="hardAlpha"/>
<feOffset dx="5" dy="4"/>
<feGaussianBlur stdDeviation="7.5"/>
<feColorMatrix type="matrix" values="0 0 0 0 0.2 0 0 0 0 0.2 0 0 0 0 0.2 0 0 0 0.05 0"/>
<feBlend mode="normal" in2="BackgroundImageFix" result="effect1_dropShadow_33_1506"/>
<feBlend mode="normal" in="SourceGraphic" in2="effect1_dropShadow_33_1506" result="shape"/>
</filter>
<clipPath id="clip0_33_1506">
<rect width="31" height="31" fill="white" transform="translate(30.0282 30.9535)"/>
</clipPath>
</defs>
</svg>
